<svg width="1002" height="862" viewBox="0 0 1002 862" fill="none" xmlns="http://www.w3.org/2000/svg">
<path d="M734.874 358.453L659.093 299.117L552.049 329.982L570.45 375.858L684.023 349.157L725.377 356.716L734.874 358.453Z" fill="#FF6347"/>
<path d="M342.907 299.117L267.126 358.453L276.623 356.716L317.977 349.157L431.55 375.858L449.951 329.982L342.907 299.117Z" fill="#FF6347"/>
<path d="M618.891 422C618.891 431.941 610.832 440 600.891 440C590.949 440 582.891 431.941 582.891 422C582.891 412.059 590.949 404 600.891 404C610.832 404 618.891 412.059 618.891 422Z" fill="#FF6347"/>
<path d="M374.84 422C374.84 431.941 382.899 440 392.84 440C402.781 440 410.84 431.941 410.84 422C410.84 412.059 402.781 404 392.84 404C382.899 404 374.84 412.059 374.84 422Z" fill="#FF6347"/>
<path d="M501 6L503.237 1.52832L501 0.40926L498.763 1.52832L501 6ZM719.639 115.375L724.55 114.439L724.087 112.01L721.876 110.903L719.639 115.375ZM745.163 384.165L740.165 384.021L740.165 384.021L745.163 384.165ZM690.553 775.977L692.503 780.581L694.975 779.533L695.468 776.894L690.553 775.977ZM501 856.277L499.05 860.881L501 861.707L502.95 860.881L501 856.277ZM501 216.641L496.724 219.233L501 226.285L505.276 219.233L501 216.641ZM520.786 184.006L520.248 179.035L517.792 179.302L516.511 181.414L520.786 184.006ZM648.606 170.161L653.152 168.079L651.65 164.802L648.067 165.191L648.606 170.161ZM734.874 358.453L733.975 363.371L743.418 365.098L739.42 356.37L734.874 358.453ZM659.093 299.117L662.175 295.18L660.163 293.605L657.707 294.313L659.093 299.117ZM546.113 519.45L541.154 520.09L550.987 520.565L546.113 519.45ZM564.712 497.298L561.859 501.404L561.859 501.404L564.712 497.298ZM546.113 575.225L541.139 575.737C541.337 577.655 542.619 579.288 544.435 579.935C546.251 580.582 548.277 580.127 549.643 578.766L546.113 575.225ZM543.343 548.326L548.316 547.814L546.809 533.177L539.087 545.702L543.343 548.326ZM520.786 326.016L525.728 325.254L525.074 321.016H520.786V326.016ZM552.049 329.982L550.663 325.177L550.522 325.218L550.382 325.268L552.049 329.982ZM570.45 375.858L565.809 377.719L567.41 381.709L571.594 380.725L570.45 375.858ZM684.023 349.157L684.923 344.238L683.895 344.051L682.879 344.29L684.023 349.157ZM552.049 567.709L547.422 565.813L547.422 565.813L552.049 567.709ZM605.076 564.94L609.43 562.482L607.908 559.785L604.815 559.947L605.076 564.94ZM669.382 678.864L665.027 681.322L671.204 692.264L674.234 680.07L669.382 678.864ZM725.377 356.716L726.276 351.798L726.276 351.798L725.377 356.716ZM703.81 522.219L698.885 521.354L698.885 521.354L703.81 522.219ZM599.734 669.964L597.705 674.534L597.705 674.534L599.734 669.964ZM743.764 411.063L738.776 410.71L738.776 410.71L743.764 411.063ZM781.372 391.681L784.699 387.948L784.699 387.948L781.372 391.681ZM731.115 525.913L726.16 525.242L726.16 525.242L731.115 525.913ZM796.014 316.918L798.782 312.754L798.782 312.754L796.014 316.918ZM789.682 379.022L793.092 375.366L793.092 375.366L789.682 379.022ZM854.779 358.453L857.816 354.48L857.816 354.48L854.779 358.453ZM833.806 433.018L837.016 429.185L837.016 429.185L833.806 433.018ZM900.486 416.404L903.747 412.613L903.747 412.613L900.486 416.404ZM882.084 489.386L885.658 485.889L885.658 485.889L882.084 489.386ZM945.203 489.386L948.921 486.044L948.921 486.044L945.203 489.386ZM925.614 558.413L921.981 561.848L921.981 561.848L925.614 558.413ZM978.444 564.94L982.708 562.33L982.708 562.33L978.444 564.94ZM972.508 607.662L969.057 611.28L969.057 611.28L972.508 607.662ZM814.019 455.763L816.201 451.264L816.201 451.264L814.019 455.763ZM805.907 525.913L809.297 522.237L809.297 522.237L805.907 525.913ZM872.785 516.681L876.486 513.319L876.486 513.319L872.785 516.681ZM866.849 577.005L870.004 573.126L870.004 573.126L866.849 577.005ZM912.753 577.005L915.445 572.792L915.445 572.792L912.753 577.005ZM900.486 654.141L898.371 658.672L898.371 658.672L900.486 654.141ZM729.037 541.008L724.085 540.316L724.085 540.316L729.037 541.008ZM773.458 530.526L775.862 526.141L775.862 526.141L773.458 530.526ZM768.115 592.63L764.338 595.906L764.338 595.906L768.115 592.63ZM833.806 592.63L837.899 589.759L837.899 589.759L833.806 592.63ZM825.693 647.219L829.078 643.538L829.078 643.538L825.693 647.219ZM866.849 650.383L870.106 646.59L870.106 646.59L866.849 650.383ZM850.624 711.103L846.874 714.41L846.874 714.41L850.624 711.103ZM716.269 626.253L711.33 625.47L711.33 625.47L716.269 626.253ZM759.409 626.253L756.36 630.216L756.36 630.216L759.409 626.253ZM749.12 687.765L745.615 691.33L745.615 691.33L749.12 687.765ZM802.543 687.765L806.533 684.75L806.533 684.75L802.543 687.765ZM789.682 738.397L793.09 734.739L793.09 734.739L789.682 738.397ZM700.673 719.806L695.748 718.945L695.748 718.945L700.673 719.806ZM731.115 719.806L728.271 723.918L728.271 723.918L731.115 719.806ZM729.037 765.098L725.931 769.017L725.931 769.017L729.037 765.098ZM282.361 115.375L280.124 110.903L277.913 112.01L277.45 114.439L282.361 115.375ZM256.837 384.165L261.835 384.021L261.835 384.021L256.837 384.165ZM311.447 775.977L306.532 776.894L307.025 779.533L309.497 780.581L311.447 775.977ZM481.214 184.006L485.489 181.414L484.208 179.302L481.752 179.035L481.214 184.006ZM353.394 170.161L353.933 165.191L350.35 164.802L348.849 168.079L353.394 170.161ZM267.126 358.453L262.58 356.37L258.582 365.098L268.025 363.371L267.126 358.453ZM342.907 299.117L344.293 294.313L341.837 293.605L339.825 295.18L342.907 299.117ZM455.887 519.45L451.013 520.565L460.846 520.09L455.887 519.45ZM437.288 497.298L440.141 501.404L440.141 501.404L437.288 497.298ZM455.887 575.225L452.357 578.766C453.723 580.127 455.749 580.582 457.565 579.935C459.381 579.288 460.663 577.655 460.861 575.737L455.887 575.225ZM458.657 548.326L462.913 545.702L455.191 533.176L453.684 547.814L458.657 548.326ZM481.214 326.016V321.016H476.926L476.272 325.254L481.214 326.016ZM449.951 329.982L451.618 325.268L451.479 325.218L451.337 325.177L449.951 329.982ZM431.55 375.858L430.406 380.725L434.59 381.709L436.191 377.719L431.55 375.858ZM317.977 349.157L319.121 344.29L318.105 344.051L317.078 344.238L317.977 349.157ZM396.924 564.94L397.185 559.947L394.092 559.785L392.57 562.482L396.924 564.94ZM332.619 678.864L327.766 680.07L330.796 692.264L336.973 681.322L332.619 678.864ZM276.623 356.716L275.724 351.798L275.724 351.798L276.623 356.716ZM298.19 522.219L293.266 523.083L293.266 523.083L298.19 522.219ZM402.266 669.964L404.295 674.534L404.295 674.534L402.266 669.964ZM220.628 391.681L223.955 395.413L223.955 395.413L220.628 391.681ZM270.885 525.913L275.84 525.242L275.84 525.242L270.885 525.913ZM205.986 316.918L203.218 312.754L203.218 312.754L205.986 316.918ZM212.318 379.022L215.728 382.679L215.728 382.679L212.318 379.022ZM147.221 358.453L150.257 362.425L150.257 362.425L147.221 358.453ZM168.194 433.018L171.405 436.851L171.405 436.851L168.194 433.018ZM101.514 416.404L98.2535 412.613L98.2535 412.613L101.514 416.404ZM119.916 489.386L123.489 492.883L119.916 489.386ZM56.7974 489.386L60.5161 492.729L60.5161 492.729L56.7974 489.386ZM76.3858 558.413L72.7523 554.978L72.7523 554.978L76.3858 558.413ZM23.5564 564.94L27.8209 567.551L27.8209 567.551L23.5564 564.94ZM29.4923 607.662L32.9434 611.28L32.9434 611.28L29.4923 607.662ZM187.981 455.763L190.163 460.262L190.163 460.262L187.981 455.763ZM196.093 525.913L199.482 529.589L199.482 529.589L196.093 525.913ZM129.215 516.681L132.917 520.042L132.917 520.042L129.215 516.681ZM135.151 577.005L138.306 580.884L138.306 580.884L135.151 577.005ZM89.2469 577.005L86.5549 572.792L89.2469 577.005ZM101.514 654.141L103.629 658.672L103.629 658.672L101.514 654.141ZM228.543 530.526L230.946 534.91L230.946 534.91L228.543 530.526ZM233.885 592.63L237.662 595.906L237.662 595.906L233.885 592.63ZM168.194 592.63L164.101 589.759L164.101 589.759L168.194 592.63ZM176.307 647.219L172.922 643.538L172.922 643.538L176.307 647.219ZM135.151 650.383L131.894 646.59L131.894 646.59L135.151 650.383ZM151.376 711.103L155.126 714.41L155.126 714.41L151.376 711.103ZM285.731 626.253L290.67 625.47L290.67 625.47L285.731 626.253ZM242.591 626.253L245.64 630.216L245.64 630.216L242.591 626.253ZM252.88 687.765L256.385 691.33L256.385 691.33L252.88 687.765ZM199.457 687.765L195.468 684.75L195.468 684.75L199.457 687.765ZM212.318 738.397L208.91 734.739L208.91 734.739L212.318 738.397ZM301.327 719.806L306.253 718.945L306.253 718.945L301.327 719.806ZM270.885 719.806L273.729 723.918L273.729 723.918L270.885 719.806ZM272.963 765.098L269.857 761.18L269.857 761.18L272.963 765.098ZM460.696 551.707L464.989 549.144L464.989 549.144L460.696 551.707ZM541.279 551.749L545.572 554.312L545.572 554.312L541.279 551.749ZM575.736 413.497L578.841 417.416L578.841 417.416L575.736 413.497ZM602.026 402.185L601.355 397.23L601.355 397.23L602.026 402.185ZM616.278 402.197L616.956 397.243L616.956 397.243L616.278 402.197ZM554.679 443.807L549.963 442.147L547.602 448.85L554.709 448.807L554.679 443.807ZM658.731 429.729L659.918 434.586L666.994 432.856L662.836 426.875L658.731 429.729ZM602.324 443.518L602.354 448.518L602.941 448.515L603.512 448.375L602.324 443.518ZM417.994 413.497L414.89 417.416L414.89 417.416L417.994 413.497ZM391.705 402.185L392.375 397.23L392.375 397.23L391.705 402.185ZM377.452 402.197L376.774 397.243L376.774 397.243L377.452 402.197ZM439.052 443.807L439.021 448.807L446.128 448.85L443.768 442.147L439.052 443.807ZM335 429.729L330.895 426.875L326.736 432.856L333.813 434.586L335 429.729ZM391.406 443.518L390.219 448.375L390.789 448.515L391.376 448.518L391.406 443.518ZM498.763 10.4717L717.402 119.847L721.876 110.903L503.237 1.52832L498.763 10.4717ZM714.727 116.312C724.335 166.697 742.841 290.736 740.165 384.021L750.161 384.308C752.868 289.935 734.202 165.055 724.55 114.439L714.727 116.312ZM688.602 771.373L499.05 851.673L502.95 860.881L692.503 780.581L688.602 771.373ZM505.276 219.233L525.062 186.599L516.511 181.414L496.724 214.049L505.276 219.233ZM521.325 188.977L649.144 175.132L648.067 165.191L520.248 179.035L521.325 188.977ZM644.06 172.244L730.329 360.535L739.42 356.37L653.152 168.079L644.06 172.244ZM737.957 354.516L662.175 295.18L656.01 303.054L731.792 362.39L737.957 354.516ZM550.987 520.565C552.085 515.766 554.244 509.224 557.011 504.817C558.428 502.558 559.635 501.466 560.398 501.09C560.695 500.944 560.834 500.949 560.896 500.955C560.97 500.961 561.28 501.001 561.859 501.404L567.565 493.191C565.81 491.972 563.859 491.173 561.756 490.992C559.641 490.809 557.688 491.279 555.983 492.117C552.744 493.711 550.317 496.67 548.541 499.5C544.92 505.269 542.449 513.046 541.239 518.334L550.987 520.565ZM551.087 574.713L548.316 547.814L538.369 548.838L541.139 575.737L551.087 574.713ZM515.845 326.778L518.041 341.019L527.924 339.494L525.728 325.254L515.845 326.778ZM518.024 340.897L541.154 520.09L551.072 518.809L527.942 339.616L518.024 340.897ZM657.707 294.313L550.663 325.177L553.434 334.786L660.478 303.921L657.707 294.313ZM550.382 325.268L521.316 335.542L524.649 344.971L553.715 334.696L550.382 325.268ZM547.408 331.843L565.809 377.719L575.091 373.996L556.689 328.12L547.408 331.843ZM571.594 380.725L685.168 354.024L682.879 344.29L569.306 370.99L571.594 380.725ZM561.859 501.404C561.597 501.222 561.876 501.249 562.198 502.367C562.508 503.444 562.715 505.06 562.716 507.28C562.718 511.703 561.906 517.601 560.463 524.344C557.588 537.774 552.415 553.629 547.422 565.813L556.675 569.605C561.852 556.972 567.222 540.545 570.241 526.437C571.745 519.411 572.719 512.724 572.716 507.275C572.715 504.558 572.474 501.916 571.808 499.603C571.154 497.33 569.932 494.836 567.564 493.191L561.859 501.404ZM547.422 565.813C547.423 565.812 547.408 565.846 547.37 565.92C547.332 565.992 547.279 566.087 547.207 566.205C547.06 566.445 546.864 566.736 546.619 567.071C546.125 567.746 545.518 568.483 544.899 569.192C544.286 569.894 543.699 570.525 543.264 570.982C543.048 571.21 542.871 571.391 542.752 571.513C542.692 571.573 542.647 571.619 542.618 571.648C542.604 571.663 542.593 571.673 542.588 571.679C542.585 571.682 542.583 571.684 542.582 571.685C542.582 571.685 542.581 571.685 542.582 571.685C542.582 571.685 542.582 571.685 542.582 571.685C542.582 571.684 542.582 571.684 542.583 571.684C542.583 571.684 542.583 571.684 546.113 575.225C549.643 578.766 549.643 578.766 549.643 578.766C549.643 578.765 549.644 578.765 549.644 578.765C549.645 578.764 549.645 578.764 549.646 578.763C549.647 578.762 549.649 578.76 549.651 578.758C549.655 578.754 549.66 578.749 549.666 578.743C549.678 578.73 549.695 578.713 549.716 578.692C549.759 578.649 549.818 578.589 549.893 578.513C550.042 578.361 550.252 578.145 550.505 577.879C551.01 577.349 551.699 576.609 552.432 575.769C553.708 574.308 555.76 571.839 556.675 569.605L547.422 565.813ZM552.309 572.702L605.337 569.933L604.815 559.947L551.788 562.716L552.309 572.702ZM600.722 567.398L665.027 681.322L673.736 676.406L609.43 562.482L600.722 567.398ZM683.124 354.075L724.478 361.635L726.276 351.798L684.923 344.238L683.124 354.075ZM724.478 361.635L733.975 363.371L735.773 353.534L726.276 351.798L724.478 361.635ZM669.382 678.864C674.234 680.07 674.234 680.07 674.234 680.069C674.234 680.068 674.235 680.067 674.235 680.065C674.236 680.062 674.237 680.058 674.238 680.052C674.241 680.04 674.246 680.022 674.252 679.999C674.263 679.953 674.28 679.884 674.303 679.792C674.348 679.61 674.415 679.338 674.503 678.982C674.679 678.269 674.939 677.216 675.273 675.855C675.94 673.132 676.906 669.176 678.098 664.237C680.482 654.358 683.774 640.544 687.405 624.799C694.662 593.332 703.294 554.065 708.734 523.083L698.885 521.354C693.493 552.062 684.911 591.117 677.661 622.551C674.039 638.256 670.755 652.037 668.377 661.89C667.188 666.817 666.226 670.761 665.56 673.473C665.228 674.828 664.97 675.876 664.795 676.584C664.708 676.938 664.641 677.207 664.596 677.388C664.574 677.478 664.557 677.546 664.546 677.591C664.54 677.614 664.536 677.631 664.533 677.642C664.532 677.648 664.531 677.652 664.53 677.655C664.53 677.656 664.529 677.657 664.529 677.658C664.529 677.658 664.529 677.658 669.382 678.864ZM708.734 523.083C714.396 490.843 719.801 449.354 723.785 415.986C725.779 399.29 727.42 384.602 728.563 374.089C729.134 368.832 729.581 364.617 729.885 361.716C730.037 360.265 730.154 359.143 730.232 358.383C730.271 358.003 730.301 357.713 730.321 357.518C730.331 357.421 730.338 357.347 730.343 357.297C730.346 357.273 730.348 357.254 730.349 357.241C730.35 357.235 730.35 357.23 730.351 357.227C730.351 357.225 730.351 357.224 730.351 357.223C730.351 357.222 730.351 357.222 725.377 356.716C720.402 356.211 720.402 356.211 720.402 356.212C720.402 356.213 720.402 356.214 720.402 356.215C720.402 356.218 720.401 356.223 720.401 356.229C720.399 356.241 720.398 356.259 720.395 356.283C720.39 356.331 720.383 356.404 720.373 356.5C720.353 356.692 720.324 356.979 720.285 357.357C720.207 358.112 720.091 359.229 719.94 360.674C719.637 363.563 719.191 367.765 718.621 373.008C717.482 383.495 715.845 398.147 713.856 414.801C709.875 448.135 704.497 489.397 698.885 521.354L708.734 523.083ZM501 655.383C519.946 655.383 543.916 648.506 559.78 643.158L556.585 633.682C540.765 639.015 518.161 645.383 501 645.383V655.383ZM559.78 643.158C565.203 641.33 569.766 639.65 572.98 638.425C574.587 637.812 575.858 637.313 576.731 636.964C577.168 636.79 577.505 636.654 577.736 636.56C577.851 636.513 577.94 636.477 578.001 636.452C578.031 636.44 578.055 636.43 578.071 636.423C578.079 636.42 578.086 636.417 578.091 636.415C578.093 636.414 578.095 636.414 578.096 636.413C578.097 636.413 578.098 636.412 578.098 636.412C578.098 636.412 578.099 636.412 578.099 636.412C578.099 636.412 578.099 636.412 576.188 631.791C574.277 627.171 574.277 627.171 574.277 627.171C574.277 627.171 574.277 627.171 574.277 627.171C574.277 627.171 574.277 627.171 574.277 627.171C574.277 627.171 574.276 627.171 574.275 627.172C574.272 627.173 574.268 627.175 574.262 627.177C574.251 627.182 574.232 627.19 574.206 627.2C574.155 627.221 574.076 627.253 573.971 627.296C573.76 627.382 573.443 627.51 573.028 627.675C572.197 628.007 570.973 628.488 569.417 629.081C566.302 630.269 561.863 631.903 556.585 633.682L559.78 643.158ZM558.182 638.42C554.482 641.783 554.483 641.783 554.483 641.784C554.484 641.785 554.484 641.785 554.485 641.786C554.486 641.788 554.488 641.789 554.49 641.791C554.494 641.796 554.499 641.801 554.505 641.808C554.518 641.822 554.535 641.841 554.557 641.865C554.601 641.913 554.665 641.982 554.747 642.07C554.91 642.247 555.148 642.501 555.456 642.825C556.07 643.472 556.964 644.399 558.101 645.536C560.374 647.809 563.628 650.935 567.576 654.369C575.409 661.183 586.236 669.444 597.705 674.534L601.762 665.394C591.63 660.897 581.681 653.385 574.139 646.824C570.4 643.571 567.316 640.609 565.173 638.466C564.102 637.395 563.269 636.531 562.708 635.94C562.428 635.645 562.216 635.418 562.077 635.268C562.007 635.193 561.956 635.138 561.924 635.102C561.907 635.085 561.896 635.072 561.889 635.064C561.886 635.061 561.883 635.058 561.882 635.057C561.882 635.057 561.882 635.056 561.882 635.057C561.882 635.057 561.882 635.057 561.882 635.057C561.883 635.057 561.883 635.058 558.182 638.42ZM597.705 674.534C609.726 679.869 625.711 684.403 638.492 687.579C644.923 689.176 650.619 690.448 654.708 691.321C656.754 691.758 658.4 692.095 659.538 692.324C660.107 692.438 660.549 692.526 660.851 692.585C661.002 692.614 661.118 692.637 661.197 692.652C661.236 692.66 661.266 692.665 661.287 692.669C661.298 692.671 661.306 692.673 661.311 692.674C661.314 692.675 661.317 692.675 661.318 692.675C661.319 692.675 661.32 692.676 661.32 692.676C661.321 692.676 661.321 692.676 662.258 687.765C663.195 682.853 663.196 682.853 663.196 682.853C663.196 682.853 663.195 682.853 663.195 682.853C663.194 682.853 663.193 682.853 663.191 682.852C663.187 682.852 663.181 682.85 663.172 682.849C663.155 682.845 663.129 682.84 663.093 682.833C663.022 682.82 662.914 682.799 662.771 682.771C662.486 682.715 662.06 682.631 661.509 682.52C660.406 682.298 658.799 681.969 656.796 681.542C652.788 680.686 647.203 679.439 640.903 677.874C628.223 674.724 612.945 670.357 601.762 665.394L597.705 674.534ZM740.165 384.021C739.934 392.099 739.46 401.043 738.776 410.71L748.751 411.417C749.443 401.646 749.924 392.557 750.161 384.308L740.165 384.021ZM747.014 414.863C751.936 410.653 759.637 404.693 766.719 400.469C770.292 398.338 773.448 396.806 775.873 396.083C778.743 395.228 778.729 396.023 778.045 395.413L784.699 387.948C781.087 384.727 776.17 385.56 773.016 386.5C769.418 387.573 765.431 389.593 761.596 391.881C753.862 396.495 745.687 402.838 740.513 407.264L747.014 414.863ZM738.776 410.71C736.498 442.898 731.894 482.902 726.16 525.242L736.07 526.584C741.815 484.158 746.451 443.913 748.751 411.416L738.776 410.71ZM778.045 395.413C776.792 394.296 776.952 393.082 776.99 393.831C777.011 394.245 776.967 395.061 776.748 396.387C776.317 398.995 775.36 402.71 773.912 407.394C771.032 416.712 766.422 429.195 760.987 442.955C750.129 470.439 736.135 502.614 726.557 523.858L735.673 527.968C745.288 506.643 759.351 474.313 770.287 446.629C775.749 432.804 780.471 420.037 783.466 410.348C784.956 405.529 786.072 401.301 786.614 398.016C786.882 396.395 787.05 394.777 786.977 393.331C786.922 392.219 786.684 389.718 784.699 387.948L778.045 395.413ZM745.163 329.982C748.092 334.034 748.091 334.035 748.091 334.035C748.091 334.035 748.09 334.035 748.09 334.036C748.09 334.036 748.09 334.035 748.091 334.035C748.092 334.034 748.096 334.031 748.102 334.027C748.113 334.019 748.132 334.005 748.159 333.986C748.213 333.947 748.299 333.887 748.413 333.807C748.643 333.646 748.99 333.406 749.444 333.1C750.351 332.488 751.678 331.618 753.327 330.603C756.638 328.567 761.189 325.989 766.211 323.765C771.269 321.525 776.59 319.741 781.483 319.132C786.397 318.521 790.345 319.153 793.246 321.082L798.782 312.754C793.146 309.007 786.47 308.435 780.249 309.209C774.006 309.986 767.682 312.177 762.162 314.622C756.605 317.082 751.645 319.898 748.088 322.085C746.304 323.182 744.859 324.13 743.852 324.81C743.348 325.149 742.953 325.422 742.68 325.614C742.543 325.709 742.436 325.785 742.362 325.838C742.324 325.865 742.295 325.886 742.274 325.901C742.263 325.909 742.254 325.915 742.248 325.92C742.244 325.922 742.242 325.924 742.239 325.926C742.238 325.926 742.237 325.927 742.236 325.928C742.235 325.929 742.234 325.929 745.163 329.982ZM793.246 321.082C795.008 322.253 795.762 323.395 796.117 324.418C796.498 325.518 796.586 326.979 796.182 328.995C795.325 333.263 792.665 338.332 789.377 344.421C786.302 350.115 782.674 356.714 781.145 363.023C779.534 369.671 780.065 376.89 786.272 382.679L793.092 375.366C790.383 372.839 789.786 369.825 790.864 365.379C792.023 360.594 794.9 355.238 798.176 349.172C801.238 343.502 804.773 337.006 805.986 330.963C806.616 327.823 806.708 324.441 805.565 321.143C804.395 317.768 802.097 314.958 798.782 312.754L793.246 321.082ZM786.272 382.679C789.404 385.6 792.904 387.271 796.688 387.667C800.386 388.054 803.911 387.176 807.1 385.784C813.27 383.091 819.406 377.876 824.823 373.306C830.583 368.447 835.684 364.176 840.522 361.928C842.854 360.844 844.833 360.38 846.55 360.432C848.18 360.481 849.879 361.001 851.743 362.425L857.816 354.48C854.384 351.857 850.688 350.552 846.852 350.436C843.103 350.323 839.547 351.353 836.307 352.859C830 355.79 823.805 361.082 818.375 365.662C812.603 370.532 807.654 374.631 803.099 376.619C800.926 377.568 799.18 377.873 797.728 377.721C796.362 377.579 794.834 376.99 793.092 375.366L786.272 382.679ZM851.743 362.425C853.911 364.082 854.666 365.614 854.9 366.981C855.161 368.501 854.892 370.511 853.769 373.193C851.449 378.735 846.439 385.058 840.706 392.214C835.283 398.985 829.163 406.56 826.079 413.794C824.501 417.494 823.51 421.551 824.081 425.676C824.673 429.953 826.866 433.727 830.595 436.851L837.016 429.185C834.947 427.451 834.197 425.827 833.986 424.304C833.754 422.627 834.098 420.481 835.277 417.716C837.707 412.019 842.787 405.611 848.511 398.466C853.926 391.707 860.011 384.179 862.993 377.054C864.523 373.401 865.457 369.373 864.756 365.29C864.029 361.053 861.657 357.417 857.816 354.48L851.743 362.425ZM830.595 436.851C833.879 439.601 837.458 441.118 841.231 441.506C844.934 441.887 848.505 441.15 851.803 439.909C858.209 437.499 864.586 432.759 870.193 428.638C876.144 424.264 881.315 420.515 886.122 418.726C888.429 417.867 890.373 417.577 892.062 417.768C893.682 417.951 895.384 418.611 897.225 420.194L903.747 412.613C900.502 409.822 896.95 408.257 893.186 407.832C889.492 407.414 885.926 408.129 882.634 409.354C876.247 411.731 869.876 416.46 864.27 420.581C858.321 424.954 853.129 428.726 848.281 430.55C845.953 431.426 843.977 431.736 842.254 431.559C840.601 431.389 838.875 430.741 837.016 429.185L830.595 436.851ZM897.225 420.194C899.263 421.947 900.061 423.575 900.329 425.067C900.616 426.664 900.39 428.651 899.439 431.186C897.461 436.464 893.062 442.392 887.938 449.198C883.094 455.631 877.574 462.884 874.77 469.976C873.332 473.612 872.458 477.546 872.918 481.572C873.39 485.703 875.223 489.523 878.511 492.883L885.658 485.889C883.806 483.996 883.054 482.196 882.853 480.436C882.64 478.571 883.004 476.347 884.069 473.653C886.27 468.088 890.813 462.003 895.926 455.213C900.758 448.797 906.208 441.617 908.803 434.697C910.139 431.132 910.881 427.247 910.171 423.299C909.443 419.245 907.28 415.654 903.747 412.613L897.225 420.194ZM878.511 492.883C884.159 498.656 890.906 499.939 897.456 499.209C903.673 498.516 910.131 495.958 915.74 493.779C921.693 491.466 926.773 489.545 931.296 489.108C935.441 488.707 938.659 489.586 941.484 492.729L948.921 486.044C943.509 480.022 936.874 478.521 930.333 479.154C924.17 479.75 917.732 482.277 912.119 484.457C906.162 486.771 901.007 488.751 896.348 489.27C892.021 489.753 888.628 488.924 885.658 485.889L878.511 492.883ZM941.484 492.729C943.167 494.602 943.821 496.324 943.971 497.958C944.129 499.684 943.758 501.715 942.729 504.163C940.591 509.248 936.266 514.735 931.304 520.963C926.624 526.837 921.292 533.468 918.567 540.056C917.164 543.449 916.301 547.158 916.727 551.005C917.164 554.944 918.904 558.594 921.981 561.848L929.248 554.978C927.511 553.141 926.84 551.467 926.666 549.904C926.483 548.25 926.813 546.282 927.808 543.878C929.878 538.871 934.159 533.426 939.125 527.195C943.807 521.317 949.16 514.669 951.947 508.039C953.38 504.63 954.283 500.91 953.929 497.045C953.567 493.089 951.921 489.382 948.921 486.044L941.484 492.729ZM921.981 561.848C926.786 566.932 932.72 568.39 938.434 568.312C943.903 568.238 949.663 566.739 954.507 565.549C959.701 564.274 963.866 563.349 967.318 563.557C970.318 563.739 972.458 564.739 974.179 567.551L982.708 562.33C979.004 556.279 973.614 553.92 967.921 553.576C962.681 553.259 956.994 554.641 952.122 555.838C946.9 557.12 942.378 558.257 938.298 558.313C934.464 558.365 931.581 557.447 929.248 554.978L921.981 561.848ZM974.179 567.55C975.419 569.576 975.553 571.751 974.711 574.645C973.805 577.762 971.977 581.019 969.826 584.909C967.856 588.473 965.473 592.802 964.623 597.139C964.175 599.419 964.101 601.9 964.809 604.425C965.525 606.982 966.956 609.276 969.057 611.28L975.959 604.044C975.012 603.14 974.617 602.368 974.438 601.728C974.25 601.057 974.211 600.21 974.436 599.063C974.93 596.545 976.441 593.614 978.578 589.747C980.535 586.207 983.027 581.862 984.313 577.438C985.665 572.792 985.866 567.488 982.708 562.33L974.179 567.55ZM969.057 611.28C971.912 614.004 975.57 615.615 979.05 616.602C982.571 617.601 986.264 618.061 989.532 618.253C992.819 618.446 995.808 618.376 997.97 618.259C999.055 618.2 999.942 618.129 1000.57 618.072C1000.88 618.043 1001.13 618.018 1001.3 617.999C1001.39 617.99 1001.46 617.982 1001.51 617.976C1001.54 617.973 1001.56 617.971 1001.57 617.969C1001.58 617.968 1001.59 617.967 1001.59 617.967C1001.6 617.966 1001.6 617.966 1001.6 617.966C1001.6 617.966 1001.6 617.966 1001.6 617.965C1001.6 617.965 1001.6 617.965 1001 613.002C1000.4 608.038 1000.4 608.038 1000.4 608.038C1000.4 608.038 1000.4 608.038 1000.4 608.038C1000.4 608.038 1000.4 608.038 1000.4 608.038C1000.4 608.038 1000.4 608.038 1000.4 608.038C1000.39 608.039 1000.38 608.04 1000.37 608.041C1000.34 608.044 1000.3 608.05 1000.24 608.056C1000.11 608.07 999.913 608.09 999.655 608.114C999.139 608.161 998.376 608.222 997.43 608.273C995.529 608.376 992.931 608.435 990.119 608.27C987.287 608.104 984.369 607.717 981.78 606.982C979.15 606.236 977.198 605.226 975.959 604.044L969.057 611.28ZM773.458 460.905C775.556 465.444 775.555 465.444 775.554 465.445C775.554 465.445 775.553 465.445 775.553 465.445C775.553 465.445 775.552 465.445 775.553 465.445C775.553 465.445 775.556 465.444 775.559 465.442C775.567 465.439 775.58 465.432 775.6 465.424C775.639 465.406 775.703 465.377 775.789 465.339C775.962 465.262 776.226 465.145 776.573 464.998C777.267 464.702 778.288 464.28 779.563 463.791C782.122 462.812 785.66 461.581 789.603 460.562C793.563 459.539 797.804 458.763 801.795 458.624C805.828 458.484 809.253 459.008 811.837 460.262L816.201 451.264C811.603 449.034 806.366 448.459 801.448 448.63C796.487 448.802 791.484 449.747 787.1 450.88C782.698 452.018 778.789 453.379 775.987 454.453C774.582 454.991 773.444 455.46 772.649 455.799C772.252 455.969 771.939 456.106 771.721 456.203C771.612 456.252 771.527 456.29 771.466 456.318C771.436 456.332 771.412 456.343 771.394 456.351C771.385 456.355 771.378 456.358 771.372 456.361C771.369 456.362 771.367 456.363 771.365 456.364C771.363 456.365 771.362 456.366 771.362 456.366C771.361 456.366 771.36 456.367 773.458 460.905ZM811.837 460.262C814.106 461.362 814.974 462.501 815.362 463.417C815.788 464.425 815.945 465.903 815.476 468.155C814.486 472.916 811.271 478.811 807.304 485.898C803.57 492.57 799.226 500.218 797.281 507.46C795.266 514.963 795.561 523.174 802.518 529.589L809.297 522.237C806.114 519.303 805.456 515.575 806.939 510.053C808.492 504.271 812.098 497.807 816.03 490.783C819.728 484.175 823.894 476.791 825.267 470.191C825.98 466.763 826.063 463.041 824.569 459.516C823.037 455.899 820.138 453.173 816.201 451.264L811.837 460.262ZM802.518 529.589C808.98 535.547 816.416 535.948 823.335 534.094C829.898 532.336 836.607 528.397 842.469 525.009C848.694 521.413 854.016 518.407 858.756 517.264C861.019 516.719 862.867 516.679 864.422 517.062C865.917 517.431 867.473 518.268 869.083 520.042L876.486 513.319C873.667 510.214 870.415 508.24 866.814 507.353C863.274 506.48 859.736 506.742 856.412 507.543C849.98 509.094 843.324 512.966 837.466 516.351C831.247 519.944 825.77 523.089 820.746 524.435C816.077 525.686 812.524 525.213 809.297 522.237L802.518 529.589ZM869.083 520.042C871.629 522.845 872.118 526.007 871.121 530.258C870.051 534.821 867.447 539.803 864.468 545.494C861.68 550.82 858.456 556.95 857.352 562.816C856.778 565.862 856.711 569.108 857.707 572.321C858.719 575.589 860.717 578.463 863.694 580.884L870.004 573.126C868.388 571.812 867.626 570.547 867.259 569.363C866.876 568.126 866.814 566.607 867.179 564.666C867.952 560.559 870.345 555.829 873.327 550.132C876.118 544.8 879.436 538.598 880.857 532.541C882.351 526.173 881.9 519.28 876.486 513.319L869.083 520.042ZM863.694 580.884C873.068 588.508 883.548 584.835 890.934 582.37C899.363 579.557 904.865 577.898 910.061 581.218L915.445 572.792C905.537 566.461 895.039 570.457 887.768 572.884C879.454 575.659 874.535 576.812 870.004 573.126L863.694 580.884ZM910.061 581.218C912.314 582.658 913.241 584.179 913.621 585.71C914.043 587.414 913.92 589.699 913.007 592.732C911.136 598.948 906.639 606.246 901.649 614.249C896.927 621.824 891.644 630.2 889.544 637.588C888.469 641.371 888.032 645.514 889.41 649.449C890.851 653.56 893.977 656.621 898.371 658.672L902.6 649.61C900.082 648.435 899.211 647.18 898.848 646.143C898.423 644.929 898.376 643.092 899.163 640.322C900.788 634.604 905.121 627.583 910.135 619.54C914.883 611.925 920.244 603.385 922.583 595.614C923.775 591.654 924.345 587.408 923.327 583.303C922.266 579.025 919.62 575.459 915.445 572.792L910.061 581.218ZM898.371 658.672C903.411 661.024 909.135 661.529 914.53 661.203C919.966 660.874 925.441 659.678 930.243 658.284C935.064 656.884 939.337 655.246 942.4 653.962C943.936 653.319 945.178 652.76 946.044 652.357C946.477 652.156 946.817 651.994 947.054 651.879C947.172 651.822 947.265 651.777 947.33 651.745C947.363 651.728 947.389 651.716 947.408 651.706C947.417 651.701 947.425 651.698 947.431 651.695C947.434 651.693 947.437 651.692 947.439 651.691C947.44 651.69 947.441 651.689 947.442 651.689C947.443 651.689 947.444 651.688 945.203 647.219C942.961 642.749 942.962 642.749 942.963 642.748C942.963 642.748 942.964 642.748 942.964 642.748C942.964 642.748 942.964 642.748 942.964 642.748C942.963 642.748 942.96 642.75 942.956 642.752C942.947 642.756 942.932 642.764 942.91 642.775C942.865 642.797 942.795 642.831 942.699 642.878C942.507 642.97 942.215 643.11 941.832 643.288C941.066 643.643 939.94 644.151 938.535 644.74C935.715 645.921 931.812 647.415 927.455 648.68C923.078 649.951 918.375 650.952 913.926 651.221C909.435 651.492 905.567 650.995 902.6 649.61L898.371 658.672ZM726.16 525.242C725.483 530.238 724.791 535.266 724.085 540.316L733.989 541.7C734.697 536.636 735.391 531.594 736.07 526.584L726.16 525.242ZM729.037 541.008C731.796 545.178 731.796 545.179 731.795 545.179C731.795 545.179 731.794 545.179 731.794 545.18C731.794 545.18 731.794 545.18 731.794 545.18C731.795 545.179 731.798 545.177 731.802 545.174C731.811 545.168 731.827 545.158 731.849 545.144C731.893 545.115 731.964 545.069 732.06 545.007C732.253 544.884 732.546 544.699 732.929 544.462C733.696 543.989 734.823 543.314 736.228 542.525C739.048 540.943 742.937 538.934 747.258 537.191C751.606 535.436 756.217 534.024 760.513 533.514C764.844 533 768.4 533.455 771.054 534.91L775.862 526.141C770.701 523.312 764.798 522.935 759.335 523.583C753.838 524.236 748.32 525.979 743.517 527.917C738.686 529.865 734.4 532.084 731.333 533.805C729.794 534.669 728.549 535.415 727.681 535.95C727.247 536.218 726.906 536.434 726.669 536.585C726.55 536.661 726.458 536.721 726.392 536.764C726.359 536.785 726.333 536.802 726.314 536.815C726.305 536.821 726.297 536.826 726.291 536.83C726.288 536.832 726.285 536.834 726.283 536.835C726.282 536.836 726.281 536.837 726.28 536.837C726.279 536.838 726.278 536.838 729.037 541.008ZM771.054 534.91C772.962 535.956 773.76 536.993 774.14 537.842C774.542 538.743 774.722 539.991 774.444 541.834C773.843 545.802 771.468 550.699 768.357 556.799C765.449 562.502 761.958 569.163 760.368 575.617C758.726 582.283 758.897 589.632 764.338 595.906L771.893 589.354C769.358 586.431 768.878 582.882 770.078 578.008C771.331 572.922 774.176 567.402 777.266 561.341C780.154 555.678 783.439 549.229 784.331 543.329C784.799 540.238 784.682 536.922 783.268 533.76C781.831 530.546 779.291 528.022 775.862 526.141L771.054 534.91ZM764.338 595.906C769.942 602.369 777.102 603.687 784.024 602.813C790.599 601.982 797.561 599.105 803.613 596.658C810.046 594.057 815.501 591.921 820.168 591.474C822.392 591.261 824.158 591.472 825.599 592.044C826.987 592.594 828.379 593.6 829.712 595.501L837.899 589.759C835.551 586.411 832.654 584.085 829.289 582.749C825.977 581.434 822.527 581.203 819.215 581.52C812.81 582.132 805.913 584.942 799.864 587.387C793.435 589.987 787.786 592.258 782.77 592.892C778.101 593.481 774.689 592.579 771.893 589.354L764.338 595.906ZM829.712 595.501C831.665 598.286 831.873 601.281 830.734 605.135C829.519 609.247 826.991 613.586 824.112 618.568C821.43 623.208 818.31 628.612 817.127 633.929C816.51 636.702 816.355 639.688 817.165 642.704C817.987 645.763 819.709 648.508 822.309 650.899L829.078 643.538C827.711 642.281 827.098 641.136 826.823 640.11C826.536 639.043 826.521 637.75 826.888 636.1C827.673 632.572 829.893 628.549 832.77 623.572C835.449 618.937 838.699 613.468 840.324 607.969C842.025 602.214 842.135 595.798 837.899 589.759L829.712 595.501ZM822.309 650.899C830.549 658.477 840.691 655.53 847.388 653.795C855.276 651.752 859.781 650.904 863.592 654.177L870.106 646.59C861.689 639.362 851.548 642.387 844.881 644.114C837.023 646.15 832.701 646.87 829.078 643.538L822.309 650.899ZM863.592 654.177C865.187 655.547 865.733 656.733 865.915 657.727C866.114 658.819 865.975 660.266 865.219 662.24C863.622 666.408 860.036 671.142 855.677 676.777C851.603 682.045 846.839 688.125 844.315 694.171C843.018 697.278 842.165 700.694 842.438 704.247C842.72 707.9 844.165 711.338 846.874 714.41L854.374 707.796C853.024 706.265 852.515 704.853 852.409 703.48C852.296 702.007 852.625 700.222 853.543 698.023C855.449 693.457 859.248 688.506 863.588 682.895C867.643 677.651 872.321 671.656 874.557 665.817C875.718 662.788 876.387 659.411 875.752 655.931C875.099 652.353 873.167 649.218 870.106 646.59L863.592 654.177ZM846.874 714.41C852.283 720.545 861.409 724.017 868.272 725.966C871.852 726.983 875.129 727.668 877.508 728.1C878.701 728.316 879.677 728.47 880.363 728.571C880.706 728.622 880.978 728.659 881.168 728.685C881.263 728.697 881.338 728.707 881.392 728.714C881.419 728.717 881.44 728.72 881.456 728.722C881.465 728.723 881.471 728.724 881.476 728.724C881.479 728.725 881.481 728.725 881.483 728.725C881.484 728.725 881.485 728.725 881.486 728.725C881.487 728.726 881.488 728.726 882.084 723.761C882.681 718.797 882.682 718.797 882.682 718.797C882.682 718.797 882.683 718.797 882.683 718.797C882.684 718.797 882.684 718.798 882.684 718.798C882.684 718.797 882.682 718.797 882.679 718.797C882.674 718.796 882.662 718.795 882.646 718.793C882.613 718.789 882.56 718.782 882.486 718.772C882.34 718.753 882.115 718.722 881.82 718.678C881.231 718.591 880.365 718.455 879.293 718.26C877.141 717.87 874.195 717.253 871.005 716.347C864.327 714.45 857.722 711.593 854.374 707.796L846.874 714.41ZM724.085 540.316C720.143 568.524 715.776 597.436 711.33 625.47L721.207 627.037C725.66 598.955 730.037 569.981 733.989 541.7L724.085 540.316ZM716.269 626.253C717.899 630.98 717.898 630.981 717.897 630.981C717.897 630.981 717.896 630.981 717.896 630.981C717.895 630.981 717.895 630.981 717.896 630.981C717.897 630.981 717.899 630.98 717.904 630.979C717.912 630.976 717.928 630.97 717.951 630.963C717.996 630.947 718.068 630.923 718.167 630.891C718.364 630.826 718.664 630.729 719.056 630.608C719.842 630.364 720.994 630.021 722.424 629.639C725.292 628.872 729.228 627.958 733.53 627.352C737.856 626.743 742.397 626.468 746.524 626.893C750.691 627.323 754.033 628.425 756.36 630.216L762.458 622.291C758.111 618.945 752.723 617.479 747.549 616.946C742.336 616.408 736.925 616.775 732.135 617.45C727.321 618.128 722.975 619.14 719.84 619.979C718.268 620.399 716.989 620.779 716.093 621.057C715.645 621.196 715.292 621.309 715.046 621.39C714.923 621.431 714.827 621.463 714.758 621.486C714.724 621.497 714.697 621.507 714.677 621.513C714.667 621.517 714.659 621.52 714.652 621.522C714.649 621.523 714.646 621.524 714.644 621.525C714.643 621.525 714.642 621.526 714.641 621.526C714.64 621.526 714.639 621.527 716.269 626.253ZM756.36 630.216C758.019 631.492 758.684 632.68 758.963 633.737C759.265 634.88 759.243 636.376 758.684 638.399C757.504 642.67 754.462 647.621 750.757 653.515C747.294 659.026 743.228 665.397 741.334 671.572C740.36 674.748 739.851 678.182 740.436 681.657C741.036 685.222 742.731 688.495 745.615 691.33L752.626 684.199C751.167 682.765 750.53 681.378 750.297 679.998C750.05 678.529 750.21 676.734 750.894 674.505C752.317 669.866 755.53 664.713 759.224 658.837C762.676 653.345 766.67 647.049 768.323 641.062C769.181 637.956 769.526 634.571 768.632 631.186C767.716 627.715 765.627 624.729 762.458 622.291L756.36 630.216ZM745.615 691.33C750.739 696.367 756.861 697.301 762.62 696.552C768.085 695.841 773.747 693.542 778.526 691.66C783.665 689.637 787.833 688.075 791.39 687.784C793.061 687.647 794.359 687.822 795.413 688.238C796.426 688.637 797.486 689.365 798.554 690.779L806.533 684.75C804.457 682.003 801.954 680.068 799.082 678.935C796.251 677.818 793.341 677.591 790.576 677.817C785.261 678.251 779.649 680.471 774.863 682.355C769.718 684.381 765.312 686.117 761.33 686.635C757.642 687.115 754.939 686.474 752.626 684.199L745.615 691.33ZM798.554 690.779C800.227 692.993 800.369 695.312 798.991 698.707C797.487 702.411 794.552 706.373 791.117 710.983C787.947 715.239 784.183 720.25 782.412 725.233C781.485 727.839 780.972 730.765 781.537 733.809C782.115 736.925 783.736 739.692 786.274 742.056L793.09 734.739C791.896 733.626 791.504 732.711 791.369 731.984C791.22 731.184 791.293 730.103 791.834 728.582C792.997 725.312 795.688 721.586 799.136 716.957C802.321 712.682 806.169 707.611 808.257 702.468C810.47 697.017 811.01 690.676 806.533 684.75L798.554 690.779ZM786.274 742.056C789.508 745.068 793.658 746.791 797.647 747.802C801.676 748.824 805.908 749.213 809.664 749.305C813.44 749.397 816.874 749.193 819.358 748.968C820.604 748.855 821.622 748.735 822.338 748.643C822.696 748.597 822.979 748.557 823.179 748.528C823.278 748.513 823.357 748.502 823.413 748.493C823.442 748.489 823.464 748.485 823.481 748.483C823.49 748.481 823.497 748.48 823.503 748.479C823.505 748.479 823.508 748.478 823.51 748.478C823.511 748.478 823.512 748.478 823.513 748.478C823.514 748.477 823.515 748.477 822.725 743.54C821.936 738.603 821.937 738.603 821.937 738.602C821.938 738.602 821.938 738.602 821.939 738.602C821.939 738.602 821.94 738.602 821.94 738.602C821.94 738.602 821.938 738.602 821.936 738.603C821.93 738.604 821.919 738.605 821.902 738.608C821.869 738.613 821.815 738.621 821.74 738.632C821.59 738.654 821.36 738.686 821.057 738.725C820.451 738.803 819.56 738.908 818.455 739.008C816.235 739.21 813.2 739.388 809.909 739.308C806.598 739.227 803.167 738.886 800.105 738.109C797.003 737.322 794.634 736.177 793.09 734.739L786.274 742.056ZM711.33 625.47C706.052 658.757 700.664 690.798 695.748 718.945L705.598 720.666C710.523 692.474 715.919 660.38 721.207 627.037L711.33 625.47ZM695.748 718.945C692.022 740.274 688.568 759.363 685.638 775.059L695.468 776.894C698.406 761.157 701.867 742.029 705.598 720.666L695.748 718.945ZM700.673 719.806C702.228 724.558 702.227 724.558 702.226 724.558C702.226 724.559 702.225 724.559 702.224 724.559C702.224 724.559 702.223 724.559 702.223 724.559C702.223 724.559 702.224 724.559 702.226 724.558C702.231 724.557 702.24 724.554 702.254 724.549C702.282 724.541 702.329 724.526 702.394 724.505C702.523 724.465 702.725 724.404 702.99 724.326C703.52 724.17 704.304 723.949 705.28 723.703C707.24 723.207 709.932 722.618 712.883 722.227C715.855 721.834 718.949 721.662 721.757 721.931C724.607 722.204 726.792 722.896 728.271 723.918L733.958 715.693C730.549 713.336 726.484 712.338 722.71 711.976C718.893 711.611 714.989 711.862 711.572 712.314C708.134 712.769 705.049 713.447 702.83 714.007C701.715 714.289 700.808 714.544 700.17 714.731C699.851 714.825 699.599 714.902 699.421 714.957C699.332 714.985 699.262 715.007 699.211 715.024C699.186 715.032 699.165 715.038 699.15 715.043C699.142 715.046 699.135 715.048 699.13 715.05C699.128 715.051 699.125 715.051 699.123 715.052C699.122 715.052 699.121 715.053 699.121 715.053C699.119 715.053 699.118 715.054 700.673 719.806ZM728.271 723.918C729.32 724.644 729.728 725.308 729.929 725.87C730.155 726.505 730.258 727.43 730.043 728.822C729.579 731.823 727.94 735.433 725.808 739.98C723.861 744.13 721.448 749.169 720.628 753.95C720.201 756.437 720.141 759.152 720.952 761.847C721.785 764.618 723.444 767.045 725.931 769.017L732.144 761.18C731.161 760.401 730.738 759.665 730.527 758.966C730.294 758.191 730.228 757.13 730.483 755.642C731.027 752.473 732.733 748.766 734.861 744.227C736.804 740.085 739.197 735.065 739.926 730.348C740.307 727.881 740.297 725.176 739.349 722.515C738.376 719.782 736.552 717.486 733.958 715.693L728.271 723.918ZM725.931 769.017C731.348 773.311 739.362 774.473 745.03 774.803C748.033 774.977 750.743 774.933 752.7 774.846C753.682 774.803 754.483 774.748 755.048 774.703C755.331 774.681 755.555 774.661 755.713 774.646C755.792 774.639 755.855 774.632 755.901 774.628C755.923 774.625 755.942 774.624 755.956 774.622C755.963 774.621 755.969 774.621 755.974 774.62C755.976 774.62 755.978 774.62 755.98 774.62C755.981 774.619 755.982 774.619 755.983 774.619C755.984 774.619 755.985 774.619 755.452 769.648C754.919 764.676 754.92 764.676 754.921 764.676C754.921 764.676 754.922 764.676 754.922 764.676C754.923 764.676 754.923 764.676 754.923 764.676C754.924 764.675 754.923 764.676 754.921 764.676C754.918 764.676 754.91 764.677 754.898 764.678C754.875 764.68 754.834 764.684 754.778 764.69C754.666 764.7 754.49 764.716 754.259 764.734C753.795 764.771 753.11 764.818 752.256 764.856C750.542 764.932 748.186 764.969 745.611 764.82C740.122 764.5 734.928 763.388 732.144 761.18L725.931 769.017ZM675.74 295.335L706.013 325.597L713.083 318.524L682.809 288.263L675.74 295.335ZM498.763 1.52832L280.124 110.903L284.598 119.847L503.237 10.4717L498.763 1.52832ZM277.45 114.439C267.798 165.055 249.133 289.935 251.839 384.308L261.835 384.021C259.16 290.736 277.666 166.697 287.273 116.312L277.45 114.439ZM309.497 780.581L499.05 860.881L502.95 851.673L313.398 771.373L309.497 780.581ZM505.276 214.049L485.489 181.414L476.938 186.599L496.724 219.233L505.276 214.049ZM481.752 179.035L353.933 165.191L352.856 175.132L480.675 188.977L481.752 179.035ZM348.849 168.079L262.58 356.37L271.671 360.535L357.94 172.244L348.849 168.079ZM270.208 362.39L345.99 303.054L339.825 295.18L264.043 354.516L270.208 362.39ZM460.761 518.334C459.551 513.046 457.08 505.269 453.459 499.5C451.683 496.67 449.256 493.711 446.017 492.117C444.313 491.279 442.359 490.809 440.244 490.992C438.141 491.173 436.191 491.972 434.436 493.191L440.141 501.404C440.72 501.001 441.03 500.961 441.104 500.955C441.166 500.949 441.306 500.944 441.602 501.09C442.366 501.466 443.572 502.558 444.989 504.817C447.756 509.224 449.915 515.766 451.013 520.565L460.761 518.334ZM460.861 575.737L463.631 548.838L453.684 547.814L450.914 574.713L460.861 575.737ZM476.272 325.254L474.076 339.494L483.959 341.019L486.155 326.778L476.272 325.254ZM474.059 339.616L450.928 518.809L460.846 520.09L483.976 340.897L474.059 339.616ZM341.522 303.921L448.566 334.786L451.337 325.177L344.293 294.313L341.522 303.921ZM448.285 334.696L477.351 344.971L480.684 335.542L451.618 325.268L448.285 334.696ZM445.311 328.12L426.91 373.996L436.191 377.719L454.592 331.843L445.311 328.12ZM432.694 370.99L319.121 344.29L316.832 354.024L430.406 380.725L432.694 370.99ZM434.436 493.191C432.068 494.836 430.846 497.33 430.192 499.603C429.526 501.916 429.285 504.558 429.284 507.275C429.281 512.724 430.255 519.411 431.759 526.437C434.779 540.545 440.148 556.972 445.325 569.605L454.578 565.813C449.585 553.629 444.412 537.774 441.537 524.344C440.094 517.601 439.282 511.703 439.284 507.28C439.285 505.06 439.493 503.444 439.802 502.367C440.124 501.249 440.403 501.222 440.141 501.404L434.436 493.191ZM445.325 569.605C446.24 571.839 448.292 574.308 449.568 575.769C450.301 576.609 450.991 577.349 451.495 577.879C451.748 578.145 451.958 578.361 452.107 578.513C452.182 578.589 452.241 578.649 452.284 578.692C452.305 578.713 452.322 578.73 452.334 578.743C452.34 578.749 452.345 578.754 452.349 578.758C452.351 578.76 452.353 578.762 452.354 578.763C452.355 578.764 452.356 578.764 452.356 578.765C452.356 578.765 452.357 578.765 452.357 578.766C452.357 578.766 452.357 578.766 455.887 575.225C459.417 571.684 459.417 571.684 459.418 571.684C459.418 571.684 459.418 571.684 459.418 571.685C459.418 571.685 459.418 571.685 459.418 571.685C459.419 571.685 459.419 571.685 459.418 571.685C459.417 571.684 459.416 571.682 459.413 571.679C459.407 571.673 459.396 571.663 459.382 571.648C459.353 571.619 459.308 571.573 459.248 571.513C459.129 571.391 458.953 571.21 458.736 570.982C458.301 570.525 457.714 569.894 457.101 569.192C456.482 568.483 455.875 567.746 455.381 567.071C455.136 566.736 454.94 566.445 454.793 566.205C454.721 566.087 454.668 565.992 454.63 565.92C454.592 565.846 454.577 565.812 454.578 565.813L445.325 569.605ZM450.212 562.716L397.185 559.947L396.663 569.933L449.691 572.702L450.212 562.716ZM392.57 562.482L328.264 676.406L336.973 681.322L401.278 567.398L392.57 562.482ZM317.078 344.238L275.724 351.798L277.522 361.635L318.876 354.075L317.078 344.238ZM275.724 351.798L266.227 353.534L268.025 363.371L277.522 361.635L275.724 351.798ZM332.619 678.864C337.471 677.658 337.471 677.658 337.471 677.658C337.471 677.657 337.47 677.656 337.47 677.655C337.469 677.652 337.468 677.648 337.467 677.642C337.464 677.631 337.46 677.614 337.454 677.591C337.443 677.546 337.426 677.478 337.404 677.388C337.359 677.207 337.293 676.938 337.205 676.584C337.03 675.876 336.772 674.828 336.44 673.473C335.775 670.761 334.812 666.817 333.623 661.89C331.245 652.037 327.961 638.256 324.339 622.551C317.09 591.117 308.507 552.062 303.115 521.354L293.266 523.083C298.706 554.065 307.338 593.332 314.595 624.799C318.226 640.544 321.518 654.358 323.902 664.237C325.094 669.176 326.06 673.132 326.727 675.855C327.061 677.216 327.321 678.269 327.497 678.982C327.585 679.338 327.652 679.61 327.697 679.792C327.72 679.884 327.737 679.953 327.749 679.999C327.754 680.022 327.759 680.04 327.762 680.052C327.763 680.058 327.764 680.062 327.765 680.065C327.765 680.067 327.766 680.068 327.766 680.069C327.766 680.07 327.766 680.07 332.619 678.864ZM303.115 521.354C297.503 489.397 292.125 448.135 288.144 414.801C286.155 398.147 284.518 383.495 283.379 373.008C282.809 367.765 282.363 363.563 282.06 360.674C281.909 359.229 281.793 358.112 281.715 357.357C281.676 356.979 281.647 356.692 281.627 356.5C281.617 356.404 281.61 356.331 281.605 356.283C281.603 356.259 281.601 356.241 281.599 356.229C281.599 356.223 281.598 356.218 281.598 356.215C281.598 356.214 281.598 356.213 281.598 356.212C281.598 356.211 281.598 356.211 276.623 356.716C271.649 357.222 271.649 357.222 271.649 357.223C271.649 357.224 271.649 357.225 271.649 357.227C271.65 357.23 271.65 357.235 271.651 357.241C271.652 357.254 271.654 357.273 271.657 357.297C271.662 357.347 271.669 357.421 271.679 357.518C271.699 357.713 271.729 358.003 271.768 358.383C271.846 359.143 271.963 360.265 272.115 361.716C272.419 364.617 272.866 368.832 273.437 374.089C274.58 384.602 276.221 399.29 278.215 415.986C282.199 449.354 287.604 490.843 293.266 523.083L303.115 521.354ZM501 645.383C483.839 645.383 461.236 639.015 445.415 633.682L442.221 643.158C458.084 648.506 482.054 655.383 501 655.383V645.383ZM445.415 633.682C440.137 631.903 435.698 630.269 432.583 629.081C431.027 628.488 429.803 628.007 428.972 627.675C428.557 627.51 428.24 627.382 428.029 627.296C427.924 627.253 427.845 627.221 427.794 627.2C427.768 627.19 427.75 627.182 427.738 627.177C427.732 627.175 427.728 627.173 427.725 627.172C427.724 627.171 427.723 627.171 427.723 627.171C427.723 627.171 427.723 627.171 427.723 627.171C427.723 627.171 427.723 627.171 427.723 627.171C427.723 627.171 427.723 627.171 425.812 631.791C423.901 636.412 423.901 636.412 423.901 636.412C423.901 636.412 423.902 636.412 423.902 636.412C423.902 636.412 423.903 636.413 423.904 636.413C423.905 636.414 423.907 636.414 423.91 636.415C423.914 636.417 423.921 636.42 423.929 636.423C423.945 636.43 423.969 636.44 423.999 636.452C424.06 636.477 424.149 636.514 424.264 636.56C424.495 636.654 424.832 636.79 425.269 636.964C426.142 637.313 427.413 637.812 429.021 638.425C432.234 639.65 436.797 641.33 442.221 643.158L445.415 633.682ZM443.818 638.42C440.117 635.058 440.118 635.057 440.118 635.057C440.118 635.057 440.118 635.057 440.118 635.057C440.118 635.056 440.118 635.057 440.118 635.057C440.117 635.058 440.114 635.061 440.111 635.064C440.104 635.072 440.093 635.085 440.076 635.102C440.044 635.138 439.993 635.193 439.923 635.268C439.784 635.418 439.572 635.645 439.292 635.94C438.731 636.531 437.898 637.395 436.827 638.466C434.684 640.609 431.6 643.571 427.861 646.824C420.319 653.385 410.37 660.897 400.238 665.394L404.295 674.534C415.764 669.444 426.591 661.183 434.424 654.369C438.372 650.935 441.626 647.809 443.899 645.536C445.036 644.399 445.93 643.472 446.544 642.825C446.852 642.501 447.09 642.247 447.253 642.07C447.335 641.982 447.399 641.913 447.443 641.865C447.465 641.841 447.483 641.822 447.495 641.808C447.501 641.801 447.506 641.796 447.51 641.791C447.512 641.789 447.514 641.788 447.515 641.786C447.516 641.785 447.517 641.785 447.517 641.784C447.518 641.783 447.518 641.783 443.818 638.42ZM400.238 665.394C389.055 670.357 373.777 674.724 361.097 677.874C354.797 679.439 349.212 680.686 345.204 681.542C343.201 681.969 341.594 682.298 340.491 682.52C339.94 682.631 339.514 682.715 339.229 682.771C339.086 682.799 338.978 682.82 338.907 682.833C338.871 682.84 338.845 682.845 338.828 682.849C338.819 682.85 338.813 682.852 338.809 682.852C338.807 682.853 338.806 682.853 338.805 682.853C338.805 682.853 338.805 682.853 338.804 682.853C338.804 682.853 338.805 682.853 339.742 687.765C340.679 692.676 340.679 692.676 340.68 692.676C340.68 692.676 340.681 692.675 340.682 692.675C340.683 692.675 340.686 692.675 340.689 692.674C340.694 692.673 340.702 692.671 340.713 692.669C340.734 692.665 340.764 692.66 340.803 692.652C340.882 692.637 340.998 692.614 341.149 692.585C341.451 692.526 341.893 692.438 342.462 692.324C343.6 692.095 345.246 691.758 347.292 691.321C351.381 690.448 357.077 689.176 363.508 687.579C376.289 684.403 392.274 679.869 404.295 674.534L400.238 665.394ZM251.839 384.308C252.076 392.557 252.557 401.646 253.249 411.417L263.224 410.71C262.54 401.043 262.067 392.099 261.835 384.021L251.839 384.308ZM261.487 407.264C256.313 402.838 248.139 396.495 240.404 391.881C236.569 389.593 232.582 387.573 228.984 386.5C225.83 385.56 220.914 384.727 217.301 387.948L223.955 395.413C223.271 396.023 223.257 395.228 226.127 396.083C228.552 396.806 231.708 398.338 235.281 400.469C242.363 404.693 250.064 410.653 254.986 414.863L261.487 407.264ZM253.249 411.417C255.549 443.913 260.185 484.158 265.93 526.584L275.84 525.242C270.106 482.902 265.502 442.898 263.224 410.71L253.249 411.417ZM217.301 387.948C215.316 389.718 215.078 392.219 215.023 393.331C214.95 394.777 215.118 396.395 215.386 398.016C215.928 401.301 217.044 405.529 218.534 410.348C221.529 420.037 226.251 432.804 231.713 446.629C242.649 474.313 256.713 506.643 266.327 527.968L275.443 523.858C265.865 502.614 251.871 470.439 241.013 442.955C235.578 429.195 230.968 416.712 228.088 407.394C226.64 402.71 225.683 398.995 225.252 396.387C225.033 395.061 224.989 394.245 225.01 393.831C225.048 393.082 225.208 394.296 223.955 395.413L217.301 387.948ZM256.837 329.982C259.766 325.929 259.765 325.929 259.764 325.928C259.763 325.927 259.762 325.926 259.761 325.926C259.758 325.924 259.756 325.922 259.752 325.92C259.746 325.915 259.737 325.909 259.727 325.901C259.705 325.886 259.676 325.865 259.638 325.838C259.564 325.785 259.457 325.709 259.32 325.614C259.047 325.422 258.652 325.149 258.148 324.81C257.141 324.13 255.696 323.182 253.912 322.085C250.355 319.898 245.395 317.082 239.838 314.622C234.318 312.177 227.994 309.986 221.751 309.209C215.53 308.435 208.854 309.007 203.218 312.754L208.754 321.082C211.655 319.153 215.603 318.521 220.517 319.132C225.41 319.741 230.731 321.525 235.789 323.765C240.811 325.989 245.362 328.567 248.673 330.603C250.322 331.618 251.649 332.488 252.557 333.1C253.01 333.406 253.357 333.646 253.587 333.807C253.701 333.887 253.787 333.947 253.841 333.986C253.868 334.005 253.887 334.019 253.898 334.027C253.904 334.031 253.908 334.034 253.909 334.035C253.91 334.035 253.91 334.036 253.91 334.036C253.91 334.036 253.91 334.035 253.909 334.035C253.909 334.035 253.908 334.034 256.837 329.982ZM203.218 312.754C199.903 314.958 197.605 317.768 196.435 321.143C195.292 324.441 195.384 327.823 196.014 330.963C197.227 337.006 200.762 343.502 203.825 349.172C207.1 355.238 209.977 360.594 211.137 365.379C212.214 369.825 211.617 372.839 208.908 375.366L215.728 382.679C221.935 376.89 222.466 369.671 220.855 363.023C219.326 356.714 215.698 350.115 212.624 344.421C209.335 338.332 206.675 333.263 205.818 328.995C205.414 326.979 205.502 325.518 205.883 324.418C206.238 323.395 206.992 322.253 208.754 321.082L203.218 312.754ZM208.908 375.366C207.166 376.99 205.639 377.579 204.272 377.721C202.82 377.873 201.074 377.568 198.901 376.619C194.346 374.631 189.398 370.532 183.625 365.662C178.195 361.082 172 355.79 165.693 352.859C162.453 351.353 158.897 350.323 155.148 350.436C151.312 350.552 147.616 351.857 144.184 354.48L150.257 362.425C152.121 361.001 153.82 360.481 155.45 360.432C157.167 360.38 159.146 360.844 161.478 361.928C166.317 364.176 171.417 368.447 177.177 373.306C182.594 377.875 188.73 383.091 194.9 385.784C198.089 387.176 201.614 388.054 205.312 387.667C209.096 387.271 212.596 385.6 215.728 382.679L208.908 375.366ZM144.184 354.48C140.343 357.417 137.971 361.053 137.244 365.29C136.543 369.373 137.478 373.401 139.007 377.054C141.989 384.179 148.074 391.707 153.489 398.466C159.213 405.611 164.293 412.019 166.723 417.716C167.902 420.481 168.246 422.627 168.014 424.304C167.803 425.827 167.053 427.451 164.984 429.185L171.405 436.851C175.134 433.727 177.327 429.953 177.919 425.676C178.491 421.551 177.499 417.494 175.921 413.794C172.837 406.56 166.718 398.985 161.294 392.214C155.561 385.058 150.551 378.735 148.231 373.193C147.109 370.511 146.839 368.501 147.1 366.981C147.334 365.614 148.089 364.082 150.257 362.425L144.184 354.48ZM164.984 429.185C163.125 430.741 161.399 431.389 159.746 431.559C158.023 431.736 156.047 431.426 153.719 430.55C148.872 428.726 143.679 424.954 137.73 420.581C132.124 416.46 125.753 411.731 119.366 409.354C116.074 408.129 112.508 407.414 108.814 407.832C105.05 408.257 101.498 409.822 98.2535 412.613L104.775 420.194C106.616 418.611 108.318 417.951 109.938 417.768C111.627 417.577 113.571 417.867 115.878 418.726C120.685 420.515 125.857 424.264 131.807 428.638C137.414 432.759 143.792 437.499 150.197 439.909C153.495 441.15 157.066 441.887 160.769 441.506C164.542 441.118 168.121 439.601 171.405 436.851L164.984 429.185ZM98.2535 412.613C94.7197 415.654 92.557 419.245 91.8286 423.299C91.1191 427.247 91.8607 431.132 93.1972 434.697C95.792 441.618 101.242 448.797 106.074 455.213C111.187 462.003 115.731 468.088 117.931 473.653C118.996 476.347 119.36 478.571 119.147 480.436C118.946 482.196 118.194 483.996 116.342 485.889L123.489 492.883C126.777 489.523 128.61 485.703 129.082 481.572C129.542 477.546 128.668 473.612 127.231 469.976C124.426 462.884 118.906 455.631 114.062 449.198C108.938 442.392 104.54 436.464 102.561 431.186C101.61 428.651 101.384 426.664 101.671 425.067C101.939 423.575 102.738 421.947 104.775 420.194L98.2535 412.613ZM116.342 485.889C113.372 488.924 109.98 489.753 105.652 489.27C100.993 488.751 95.8376 486.771 89.8809 484.457C84.2678 482.277 77.8301 479.75 71.667 479.154C65.1257 478.521 58.4909 480.022 53.0786 486.044L60.5161 492.729C63.3406 489.586 66.5594 488.707 70.704 489.108C75.2267 489.545 80.3071 491.466 86.2599 493.779C91.8691 495.958 98.327 498.516 104.544 499.209C111.094 499.939 117.841 498.656 123.489 492.883L116.342 485.889ZM53.0786 486.044C50.0786 489.382 48.4336 493.089 48.071 497.045C47.7168 500.91 48.6198 504.63 50.0529 508.039C52.84 514.669 58.1926 521.317 62.8756 527.195C67.8409 533.426 72.1218 538.871 74.1922 543.878C75.1867 546.282 75.5169 548.25 75.3337 549.904C75.1605 551.467 74.489 553.141 72.7523 554.978L80.0194 561.848C83.0957 558.594 84.8364 554.944 85.2728 551.005C85.6991 547.158 84.8363 543.449 83.4332 540.056C80.7085 533.468 75.3766 526.837 70.6965 520.963C65.7341 514.735 61.409 509.248 59.2714 504.163C58.2421 501.715 57.8711 499.684 58.0292 497.958C58.179 496.324 58.8328 494.602 60.5161 492.729L53.0786 486.044ZM72.7523 554.978C70.4191 557.447 67.5365 558.365 63.7017 558.313C59.6217 558.257 55.1006 557.12 49.8781 555.838C45.0058 554.641 39.3188 553.259 34.0787 553.576C28.3866 553.92 22.9957 556.279 19.2919 562.33L27.8209 567.551C29.542 564.739 31.6826 563.739 34.6823 563.557C38.1341 563.349 42.2993 564.274 47.4934 565.549C52.3374 566.739 58.097 568.238 63.5658 568.312C69.2797 568.39 75.2139 566.932 80.0194 561.848L72.7523 554.978ZM19.2919 562.33C16.1342 567.488 16.3355 572.792 17.6869 577.438C18.9736 581.862 21.465 586.207 23.4217 589.747C25.5591 593.614 27.0706 596.545 27.5644 599.063C27.7894 600.21 27.7499 601.057 27.5619 601.728C27.3826 602.368 26.9886 603.14 26.0411 604.044L32.9434 611.28C35.0437 609.276 36.475 606.982 37.1912 604.425C37.8986 601.9 37.8247 599.419 37.3775 597.139C36.527 592.802 34.1436 588.473 32.1738 584.909C30.0234 581.019 28.1954 577.762 27.2889 574.645C26.447 571.751 26.5812 569.576 27.8209 567.551L19.2919 562.33ZM26.0411 604.044C24.8018 605.226 22.8505 606.236 20.2204 606.982C17.6311 607.717 14.7132 608.104 11.8815 608.27C9.06903 608.435 6.47091 608.376 4.56985 608.273C3.62377 608.222 2.86138 608.161 2.3447 608.114C2.08661 608.09 1.89059 608.07 1.76445 608.056C1.7014 608.05 1.65588 608.044 1.62886 608.041C1.61536 608.04 1.60648 608.039 1.60237 608.038C1.60031 608.038 1.59944 608.038 1.59978 608.038C1.59995 608.038 1.60042 608.038 1.60119 608.038C1.60158 608.038 1.60239 608.038 1.60258 608.038C1.60346 608.038 1.60442 608.038 1 613.002C0.395578 617.965 0.396694 617.965 0.397886 617.965C0.398388 617.966 0.399661 617.966 0.400665 617.966C0.402673 617.966 0.404994 617.966 0.407625 617.967C0.412888 617.967 0.419393 617.968 0.427125 617.969C0.442588 617.971 0.462961 617.973 0.488119 617.976C0.538432 617.982 0.607912 617.99 0.695559 617.999C0.870807 618.018 1.11897 618.043 1.43202 618.072C2.0576 618.129 2.94532 618.2 4.03053 618.259C6.19208 618.376 9.18139 618.446 12.4682 618.253C15.7359 618.061 19.4292 617.601 22.95 616.602C26.43 615.615 30.0877 614.004 32.9434 611.28L26.0411 604.044ZM228.543 460.905C230.641 456.367 230.64 456.366 230.638 456.366C230.638 456.366 230.637 456.365 230.636 456.364C230.634 456.363 230.631 456.362 230.628 456.361C230.622 456.358 230.615 456.355 230.606 456.351C230.588 456.343 230.564 456.332 230.534 456.318C230.473 456.29 230.388 456.252 230.279 456.203C230.061 456.106 229.748 455.969 229.351 455.799C228.556 455.46 227.418 454.991 226.013 454.453C223.211 453.379 219.303 452.018 214.9 450.88C210.516 449.747 205.513 448.802 200.552 448.63C195.634 448.459 190.397 449.034 185.799 451.264L190.163 460.262C192.747 459.008 196.172 458.484 200.205 458.624C204.197 458.763 208.437 459.539 212.398 460.562C216.34 461.581 219.878 462.812 222.437 463.791C223.712 464.28 224.733 464.702 225.427 464.998C225.774 465.145 226.038 465.262 226.211 465.339C226.297 465.377 226.361 465.406 226.4 465.424C226.42 465.432 226.433 465.439 226.441 465.442C226.445 465.444 226.447 465.445 226.447 465.445C226.448 465.445 226.448 465.445 226.447 465.445C226.447 465.445 226.446 465.445 226.446 465.445C226.445 465.444 226.444 465.444 228.543 460.905ZM185.799 451.264C181.862 453.173 178.963 455.899 177.431 459.516C175.937 463.041 176.02 466.763 176.733 470.191C178.106 476.791 182.272 484.175 185.97 490.783C189.902 497.807 193.508 504.271 195.061 510.053C196.544 515.575 195.886 519.303 192.704 522.237L199.482 529.589C206.439 523.174 206.734 514.963 204.719 507.46C202.774 500.218 198.43 492.57 194.697 485.898C190.729 478.811 187.514 472.916 186.524 468.155C186.055 465.903 186.212 464.425 186.639 463.417C187.026 462.501 187.894 461.362 190.163 460.262L185.799 451.264ZM192.704 522.237C189.476 525.213 185.923 525.686 181.254 524.435C176.23 523.089 170.753 519.944 164.534 516.351C158.676 512.966 152.02 509.094 145.588 507.543C142.264 506.742 138.726 506.48 135.186 507.353C131.585 508.24 128.333 510.214 125.514 513.319L132.917 520.042C134.528 518.268 136.083 517.431 137.578 517.062C139.134 516.679 140.981 516.719 143.244 517.264C147.984 518.407 153.306 521.413 159.531 525.009C165.393 528.397 172.102 532.336 178.666 534.094C185.584 535.948 193.02 535.547 199.482 529.589L192.704 522.237ZM125.514 513.319C120.101 519.28 119.649 526.173 121.143 532.541C122.564 538.598 125.882 544.8 128.673 550.132C131.655 555.829 134.048 560.559 134.821 564.666C135.187 566.607 135.124 568.126 134.741 569.363C134.374 570.547 133.612 571.812 131.996 573.126L138.306 580.884C141.283 578.463 143.282 575.589 144.293 572.321C145.289 569.107 145.222 565.862 144.648 562.816C143.544 556.95 140.32 550.82 137.533 545.494C134.553 539.803 131.949 534.821 130.879 530.258C129.882 526.007 130.372 522.845 132.917 520.042L125.514 513.319ZM131.996 573.126C127.465 576.812 122.546 575.659 114.232 572.884C106.961 570.457 96.4632 566.461 86.5549 572.792L91.939 581.218C97.1356 577.898 102.637 579.557 111.066 582.37C118.452 584.835 128.932 588.508 138.306 580.884L131.996 573.126ZM86.5549 572.792C82.3805 575.459 79.7339 579.025 78.6733 583.303C77.6556 587.408 78.2254 591.654 79.4174 595.614C81.7563 603.385 87.1172 611.925 91.8647 619.54C96.8794 627.583 101.212 634.604 102.837 640.322C103.625 643.092 103.578 644.929 103.152 646.143C102.789 647.18 101.918 648.435 99.4001 649.61L103.629 658.672C108.023 656.621 111.15 653.56 112.59 649.449C113.968 645.514 113.531 641.371 112.456 637.588C110.356 630.2 105.073 621.824 100.351 614.249C95.3613 606.246 90.8641 598.948 88.993 592.732C88.0801 589.699 87.9569 587.414 88.3794 585.71C88.759 584.179 89.6857 582.658 91.939 581.218L86.5549 572.792ZM99.4001 649.61C96.4336 650.995 92.5647 651.492 88.0738 651.221C83.6252 650.952 78.9216 649.951 74.5454 648.68C70.1884 647.415 66.2851 645.921 63.4654 644.74C62.0598 644.151 60.934 643.643 60.168 643.288C59.7852 643.11 59.4929 642.97 59.3012 642.878C59.2054 642.831 59.1348 642.797 59.0906 642.775C59.0685 642.764 59.053 642.756 59.0443 642.752C59.04 642.75 59.0373 642.748 59.0364 642.748C59.0359 642.748 59.0359 642.748 59.0363 642.748C59.0365 642.748 59.0371 642.748 59.0372 642.748C59.0379 642.749 59.0387 642.749 56.7974 647.219C54.556 651.688 54.5571 651.689 54.5583 651.689C54.5588 651.689 54.5601 651.69 54.5611 651.691C54.5633 651.692 54.5659 651.693 54.5689 651.695C54.5749 651.698 54.5827 651.701 54.5922 651.706C54.6112 651.716 54.6372 651.728 54.6699 651.745C54.7353 651.777 54.8278 651.822 54.9461 651.879C55.1827 651.994 55.5228 652.156 55.9562 652.357C56.8224 652.76 58.0643 653.319 59.6 653.962C62.6628 655.246 66.9365 656.884 71.7572 658.284C76.5587 659.678 82.0337 660.874 87.4706 661.203C92.8653 661.529 98.5892 661.024 103.629 658.672L99.4001 649.61ZM265.93 526.584C266.609 531.595 267.303 536.636 268.011 541.7L277.915 540.316C277.209 535.266 276.517 530.238 275.84 525.242L265.93 526.584ZM272.963 541.008C275.722 536.838 275.721 536.838 275.72 536.837C275.719 536.837 275.718 536.836 275.717 536.835C275.715 536.834 275.712 536.832 275.709 536.83C275.703 536.826 275.695 536.821 275.686 536.815C275.667 536.802 275.641 536.785 275.608 536.764C275.543 536.721 275.45 536.661 275.331 536.585C275.094 536.434 274.753 536.218 274.319 535.95C273.451 535.415 272.206 534.669 270.667 533.805C267.6 532.084 263.314 529.865 258.483 527.917C253.68 525.979 248.162 524.236 242.665 523.583C237.202 522.935 231.299 523.312 226.139 526.141L230.946 534.91C233.6 533.455 237.156 533 241.487 533.514C245.783 534.024 250.394 535.436 254.742 537.191C259.063 538.934 262.952 540.943 265.772 542.525C267.177 543.314 268.304 543.989 269.071 544.462C269.454 544.699 269.747 544.884 269.94 545.007C270.036 545.069 270.107 545.115 270.151 545.144C270.173 545.158 270.189 545.168 270.198 545.174C270.202 545.177 270.205 545.179 270.206 545.18C270.206 545.18 270.206 545.18 270.206 545.18C270.206 545.179 270.205 545.179 270.205 545.179C270.204 545.179 270.204 545.178 272.963 541.008ZM226.139 526.141C222.71 528.022 220.169 530.546 218.732 533.76C217.318 536.922 217.202 540.238 217.669 543.329C218.561 549.229 221.846 555.678 224.734 561.341C227.824 567.402 230.669 572.922 231.922 578.008C233.122 582.882 232.642 586.431 230.107 589.354L237.662 595.906C243.103 589.632 243.274 582.283 241.632 575.617C240.042 569.163 236.551 562.502 233.643 556.799C230.532 550.699 228.157 545.802 227.557 541.834C227.278 539.991 227.458 538.743 227.861 537.842C228.24 536.993 229.038 535.956 230.946 534.91L226.139 526.141ZM230.107 589.354C227.311 592.579 223.899 593.481 219.23 592.892C214.214 592.258 208.565 589.987 202.136 587.387C196.087 584.942 189.19 582.132 182.785 581.52C179.473 581.203 176.023 581.434 172.711 582.749C169.346 584.085 166.449 586.411 164.101 589.759L172.288 595.501C173.621 593.6 175.013 592.594 176.401 592.044C177.842 591.472 179.609 591.261 181.832 591.474C186.499 591.921 191.954 594.057 198.387 596.658C204.439 599.105 211.401 601.982 217.976 602.813C224.898 603.687 232.058 602.369 237.662 595.906L230.107 589.354ZM164.101 589.759C159.865 595.798 159.976 602.214 161.676 607.969C163.301 613.468 166.551 618.937 169.23 623.572C172.107 628.549 174.327 632.572 175.112 636.1C175.479 637.75 175.464 639.043 175.177 640.11C174.902 641.136 174.289 642.281 172.922 643.538L179.691 650.899C182.291 648.508 184.013 645.763 184.835 642.704C185.645 639.688 185.49 636.702 184.873 633.929C183.691 628.612 180.57 623.208 177.888 618.568C175.009 613.586 172.481 609.247 171.266 605.135C170.127 601.281 170.335 598.286 172.288 595.501L164.101 589.759ZM172.922 643.538C169.299 646.87 164.977 646.15 157.119 644.114C150.452 642.387 140.311 639.362 131.894 646.59L138.409 654.177C142.219 650.904 146.724 651.752 154.612 653.795C161.309 655.53 171.452 658.477 179.691 650.899L172.922 643.538ZM131.894 646.59C128.833 649.218 126.901 652.353 126.248 655.931C125.613 659.411 126.283 662.788 127.443 665.817C129.679 671.656 134.357 677.651 138.412 682.895C142.752 688.506 146.551 693.457 148.457 698.023C149.375 700.222 149.704 702.007 149.591 703.48C149.485 704.853 148.976 706.265 147.626 707.796L155.126 714.41C157.835 711.338 159.281 707.9 159.562 704.247C159.835 700.694 158.983 697.278 157.685 694.171C155.161 688.125 150.397 682.045 146.323 676.777C141.965 671.142 138.378 666.408 136.781 662.24C136.025 660.266 135.886 658.819 136.086 657.727C136.267 656.733 136.813 655.547 138.409 654.177L131.894 646.59ZM147.626 707.796C144.278 711.593 137.673 714.45 130.996 716.347C127.805 717.253 124.859 717.87 122.708 718.26C121.635 718.455 120.769 718.591 120.18 718.678C119.885 718.722 119.66 718.753 119.514 718.772C119.44 718.782 119.387 718.789 119.354 718.793C119.338 718.795 119.327 718.796 119.321 718.797C119.318 718.797 119.316 718.797 119.316 718.798C119.316 718.798 119.316 718.797 119.317 718.797C119.317 718.797 119.318 718.797 119.318 718.797C119.319 718.797 119.319 718.797 119.916 723.761C120.512 728.726 120.513 728.726 120.514 728.725C120.515 728.725 120.516 728.725 120.517 728.725C120.519 728.725 120.521 728.725 120.524 728.724C120.529 728.724 120.536 728.723 120.544 728.722C120.56 728.72 120.581 728.717 120.608 728.714C120.662 728.707 120.737 728.697 120.832 728.685C121.022 728.659 121.294 728.622 121.637 728.571C122.323 728.47 123.299 728.316 124.492 728.1C126.871 727.668 130.148 726.983 133.728 725.966C140.591 724.017 149.717 720.545 155.126 714.41L147.626 707.796ZM268.011 541.7C271.963 569.981 276.34 598.955 280.793 627.037L290.67 625.47C286.224 597.436 281.857 568.524 277.915 540.316L268.011 541.7ZM285.731 626.253C287.361 621.527 287.36 621.526 287.359 621.526C287.358 621.526 287.357 621.525 287.356 621.525C287.354 621.524 287.351 621.523 287.348 621.522C287.341 621.52 287.333 621.517 287.323 621.513C287.303 621.507 287.276 621.497 287.242 621.486C287.173 621.463 287.077 621.431 286.954 621.39C286.708 621.309 286.355 621.196 285.907 621.057C285.011 620.779 283.732 620.399 282.16 619.979C279.025 619.14 274.679 618.128 269.865 617.45C265.075 616.775 259.664 616.408 254.451 616.946C249.277 617.479 243.889 618.945 239.542 622.291L245.64 630.216C247.968 628.425 251.31 627.323 255.476 626.893C259.603 626.468 264.144 626.743 268.47 627.352C272.773 627.958 276.708 628.872 279.576 629.639C281.006 630.021 282.158 630.364 282.944 630.608C283.336 630.729 283.637 630.826 283.833 630.891C283.932 630.923 284.004 630.947 284.049 630.963C284.072 630.97 284.088 630.976 284.096 630.979C284.101 630.98 284.103 630.981 284.104 630.981C284.105 630.981 284.105 630.981 284.104 630.981C284.104 630.981 284.103 630.981 284.103 630.981C284.102 630.981 284.101 630.98 285.731 626.253ZM239.542 622.291C236.373 624.729 234.284 627.715 233.368 631.186C232.475 634.571 232.819 637.956 233.677 641.062C235.33 647.048 239.325 653.345 242.776 658.837C246.47 664.713 249.683 669.866 251.106 674.505C251.79 676.734 251.95 678.529 251.703 679.998C251.47 681.378 250.833 682.765 249.375 684.199L256.385 691.33C259.269 688.495 260.964 685.222 261.564 681.657C262.149 678.182 261.64 674.748 260.666 671.572C258.772 665.397 254.706 659.026 251.243 653.515C247.538 647.621 244.496 642.67 243.316 638.399C242.757 636.376 242.735 634.88 243.037 633.737C243.316 632.68 243.981 631.492 245.64 630.216L239.542 622.291ZM249.375 684.199C247.061 686.474 244.358 687.115 240.67 686.635C236.689 686.117 232.282 684.381 227.138 682.355C222.351 680.471 216.739 678.251 211.424 677.817C208.659 677.591 205.75 677.818 202.918 678.935C200.046 680.068 197.543 682.003 195.468 684.75L203.446 690.779C204.514 689.365 205.574 688.637 206.587 688.238C207.641 687.822 208.94 687.647 210.61 687.784C214.167 688.075 218.335 689.637 223.474 691.66C228.253 693.542 233.916 695.841 239.38 696.552C245.139 697.301 251.261 696.367 256.385 691.33L249.375 684.199ZM195.468 684.75C190.99 690.676 191.531 697.017 193.743 702.468C195.831 707.611 199.679 712.682 202.864 716.957C206.312 721.586 209.004 725.312 210.166 728.582C210.707 730.103 210.78 731.184 210.631 731.984C210.496 732.711 210.104 733.626 208.91 734.739L215.726 742.056C218.264 739.692 219.885 736.925 220.463 733.809C221.028 730.765 220.515 727.839 219.589 725.233C217.817 720.25 214.054 715.239 210.883 710.983C207.449 706.373 204.513 702.411 203.009 698.707C201.631 695.312 201.773 692.993 203.446 690.779L195.468 684.75ZM208.91 734.739C207.366 736.177 204.998 737.322 201.895 738.109C198.833 738.886 195.402 739.227 192.091 739.308C188.8 739.388 185.765 739.21 183.546 739.008C182.44 738.908 181.549 738.803 180.943 738.725C180.64 738.686 180.41 738.654 180.26 738.632C180.185 738.621 180.131 738.613 180.098 738.608C180.081 738.605 180.07 738.604 180.065 738.603C180.062 738.602 180.06 738.602 180.06 738.602C180.06 738.602 180.061 738.602 180.061 738.602C180.062 738.602 180.062 738.602 180.063 738.602C180.063 738.603 180.064 738.603 179.275 743.54C178.485 748.477 178.486 748.477 178.487 748.478C178.488 748.478 178.489 748.478 178.49 748.478C178.492 748.478 178.495 748.479 178.498 748.479C178.503 748.48 178.51 748.481 178.519 748.483C178.536 748.485 178.559 748.489 178.587 748.493C178.643 748.502 178.722 748.513 178.821 748.528C179.021 748.557 179.304 748.597 179.662 748.643C180.378 748.735 181.396 748.855 182.643 748.968C185.126 749.193 188.56 749.397 192.336 749.305C196.092 749.213 200.324 748.824 204.353 747.802C208.342 746.791 212.492 745.068 215.726 742.056L208.91 734.739ZM280.793 627.037C286.081 660.38 291.477 692.474 296.402 720.666L306.253 718.945C301.336 690.798 295.948 658.757 290.67 625.47L280.793 627.037ZM296.402 720.666C300.133 742.029 303.594 761.157 306.532 776.894L316.362 775.059C313.432 759.363 309.978 740.274 306.253 718.945L296.402 720.666ZM301.327 719.806C302.882 715.054 302.881 715.053 302.879 715.053C302.879 715.053 302.878 715.052 302.877 715.052C302.875 715.051 302.872 715.051 302.87 715.05C302.865 715.048 302.858 715.046 302.85 715.043C302.835 715.038 302.814 715.032 302.789 715.024C302.738 715.007 302.668 714.985 302.579 714.957C302.401 714.902 302.149 714.825 301.83 714.731C301.192 714.544 300.285 714.289 299.17 714.007C296.951 713.447 293.866 712.769 290.428 712.314C287.012 711.862 283.107 711.611 279.29 711.976C275.516 712.338 271.451 713.336 268.042 715.693L273.729 723.918C275.208 722.896 277.393 722.204 280.243 721.931C283.051 721.662 286.145 721.834 289.117 722.227C292.068 722.618 294.76 723.207 296.721 723.703C297.696 723.949 298.48 724.17 299.01 724.326C299.276 724.404 299.477 724.465 299.606 724.505C299.671 724.526 299.718 724.541 299.746 724.549C299.76 724.554 299.769 724.557 299.774 724.558C299.776 724.559 299.777 724.559 299.777 724.559C299.777 724.559 299.776 724.559 299.776 724.559C299.775 724.559 299.774 724.559 299.774 724.558C299.773 724.558 299.772 724.558 301.327 719.806ZM268.042 715.693C265.448 717.486 263.624 719.782 262.651 722.515C261.704 725.176 261.693 727.881 262.074 730.348C262.803 735.065 265.196 740.085 267.139 744.227C269.267 748.766 270.973 752.473 271.517 755.642C271.772 757.13 271.706 758.191 271.473 758.966C271.262 759.665 270.839 760.401 269.857 761.18L276.069 769.017C278.556 767.045 280.215 764.618 281.049 761.847C281.86 759.152 281.799 756.437 281.372 753.95C280.552 749.169 278.139 744.13 276.192 739.98C274.06 735.433 272.421 731.823 271.957 728.822C271.742 727.43 271.845 726.505 272.071 725.87C272.272 725.308 272.68 724.644 273.729 723.918L268.042 715.693ZM269.857 761.18C267.072 763.388 261.878 764.5 256.389 764.82C253.814 764.969 251.459 764.932 249.744 764.856C248.89 764.818 248.205 764.771 247.741 764.734C247.51 764.716 247.335 764.7 247.222 764.69C247.166 764.684 247.125 764.68 247.102 764.678C247.09 764.677 247.082 764.676 247.079 764.676C247.077 764.676 247.076 764.675 247.077 764.676C247.077 764.676 247.077 764.676 247.078 764.676C247.078 764.676 247.079 764.676 247.079 764.676C247.08 764.676 247.081 764.676 246.548 769.648C246.015 774.619 246.016 774.619 246.017 774.619C246.018 774.619 246.019 774.619 246.02 774.62C246.022 774.62 246.024 774.62 246.026 774.62C246.031 774.621 246.037 774.621 246.044 774.622C246.058 774.624 246.077 774.625 246.1 774.628C246.145 774.632 246.208 774.639 246.287 774.646C246.446 774.661 246.67 774.681 246.952 774.703C247.517 774.748 248.318 774.803 249.3 774.846C251.257 774.933 253.967 774.977 256.97 774.803C262.638 774.473 270.652 773.311 276.069 769.017L269.857 761.18ZM319.191 288.263L288.917 318.524L295.987 325.597L326.26 295.335L319.191 288.263ZM506 216.641V6H496V216.641H506ZM467.561 669.964C465.395 674.47 465.395 674.47 465.396 674.471C465.396 674.471 465.397 674.471 465.398 674.472C465.399 674.472 465.401 674.473 465.403 674.474C465.407 674.476 465.412 674.479 465.419 674.482C465.432 674.488 465.449 674.496 465.471 674.507C465.515 674.528 465.577 674.557 465.657 674.594C465.817 674.669 466.047 674.776 466.341 674.911C466.93 675.18 467.776 675.559 468.832 676.012C470.942 676.916 473.904 678.121 477.33 679.328C484.042 681.692 493.064 684.26 501 684.26V674.26C494.831 674.26 487.134 672.179 480.653 669.896C477.481 668.779 474.729 667.66 472.773 666.821C471.796 666.402 471.022 666.055 470.498 665.816C470.236 665.696 470.037 665.603 469.906 665.542C469.841 665.512 469.793 665.489 469.763 665.475C469.748 665.467 469.738 665.462 469.732 665.46C469.729 665.458 469.727 665.457 469.726 665.457C469.726 665.457 469.726 665.457 469.726 665.457C469.726 665.457 469.727 665.457 469.727 665.457C469.727 665.457 469.728 665.458 467.561 669.964ZM501 684.26C508.936 684.26 517.958 681.692 524.67 679.328C528.096 678.121 531.058 676.916 533.168 676.012C534.224 675.559 535.07 675.18 535.659 674.911C535.953 674.776 536.183 674.669 536.343 674.594C536.423 674.557 536.485 674.528 536.529 674.507C536.551 674.496 536.569 674.488 536.581 674.482C536.588 674.479 536.593 674.476 536.597 674.474C536.599 674.473 536.601 674.472 536.602 674.472C536.603 674.471 536.604 674.471 536.604 674.471C536.605 674.47 536.606 674.47 534.439 669.964C532.272 665.458 532.273 665.457 532.273 665.457C532.273 665.457 532.274 665.457 532.274 665.457C532.274 665.457 532.274 665.457 532.274 665.457C532.273 665.457 532.271 665.458 532.268 665.46C532.262 665.462 532.252 665.467 532.237 665.475C532.207 665.489 532.159 665.512 532.094 665.542C531.963 665.603 531.764 665.696 531.502 665.816C530.978 666.055 530.204 666.402 529.228 666.821C527.271 667.66 524.519 668.779 521.348 669.896C514.867 672.179 507.169 674.26 501 674.26V684.26ZM520.786 321.016H481.214V331.016H520.786V321.016ZM454.401 550.95C455.004 551.928 455.664 553.033 456.402 554.27L464.989 549.144C464.26 547.923 463.561 546.753 462.913 545.702L454.401 550.95ZM456.402 554.27C460.049 560.378 465.38 569.346 472.481 576.758C479.587 584.177 489.042 590.641 501 590.641V580.641C492.912 580.641 485.895 576.306 479.702 569.841C473.503 563.37 468.706 555.371 464.989 549.144L456.402 554.27ZM501 590.641C512.949 590.641 522.382 584.217 529.482 576.814C536.572 569.423 541.899 560.463 545.572 554.312L536.986 549.186C533.241 555.457 528.45 563.444 522.265 569.892C516.09 576.331 509.093 580.641 501 580.641V590.641ZM545.572 554.312C546.318 553.063 546.986 551.944 547.599 550.95L539.087 545.702C538.429 546.769 537.723 547.952 536.986 549.186L545.572 554.312ZM578.841 417.416C585.733 411.956 593.812 408.342 602.696 407.14L601.355 397.23C590.583 398.688 580.842 403.073 572.631 409.577L578.841 417.416ZM602.696 407.14C607.058 406.55 611.379 406.573 615.601 407.15L616.956 397.243C611.856 396.545 606.627 396.517 601.355 397.23L602.696 407.14ZM572.631 409.577C562.402 417.681 554.576 429.045 549.963 442.147L559.395 445.468C563.442 433.973 570.227 424.239 578.841 417.416L572.631 409.577ZM662.836 426.875C651.678 410.826 635.26 399.747 616.956 397.243L615.601 407.15C630.727 409.22 644.815 418.473 654.625 432.583L662.836 426.875ZM613.891 422C613.891 429.18 608.07 435 600.891 435V445C613.593 445 623.891 434.703 623.891 422H613.891ZM600.891 435C593.711 435 587.891 429.18 587.891 422H577.891C577.891 434.703 588.188 445 600.891 445V435ZM587.891 422C587.891 414.82 593.711 409 600.891 409V399C588.188 399 577.891 409.297 577.891 422H587.891ZM600.891 409C608.07 409 613.891 414.82 613.891 422H623.891C623.891 409.297 613.593 399 600.891 399V409ZM421.099 409.577C412.889 403.073 403.147 398.688 392.375 397.23L391.035 407.14C399.918 408.342 407.998 411.956 414.89 417.416L421.099 409.577ZM392.375 397.23C387.103 396.517 381.875 396.545 376.774 397.243L378.13 407.15C382.352 406.573 386.673 406.55 391.035 407.14L392.375 397.23ZM414.89 417.416C423.503 424.239 430.288 433.973 434.336 445.468L443.768 442.147C439.155 429.045 431.329 417.681 421.099 409.577L414.89 417.416ZM339.105 432.583C348.916 418.473 363.004 409.22 378.13 407.15L376.774 397.243C358.471 399.747 342.053 410.826 330.895 426.875L339.105 432.583ZM369.84 422C369.84 434.703 380.137 445 392.84 445V435C385.66 435 379.84 429.18 379.84 422H369.84ZM392.84 445C405.542 445 415.84 434.703 415.84 422H405.84C405.84 429.18 400.02 435 392.84 435V445ZM415.84 422C415.84 409.297 405.542 399 392.84 399V409C400.02 409 405.84 414.82 405.84 422H415.84ZM392.84 399C380.137 399 369.84 409.297 369.84 422H379.84C379.84 414.82 385.66 409 392.84 409V399ZM554.709 448.807L602.354 448.518L602.294 438.518L554.648 438.807L554.709 448.807ZM603.512 448.375L659.918 434.586L657.543 424.872L601.137 438.661L603.512 448.375ZM439.082 438.807L391.437 438.518L391.376 448.518L439.021 448.807L439.082 438.807ZM392.594 438.661L336.187 424.872L333.813 434.586L390.219 448.375L392.594 438.661Z" fill="#FF6347"/>
</svg>
